<svg width="158" height="68" viewBox="0 0 158 68" fill="none" xmlns="http://www.w3.org/2000/svg">
<g clip-path="url(#clip0_1280_9434)">
<path d="M69.7649 0C81.5444 22.5688 93.4248 45.9863 104.82 68.6561C98.9004 68.6561 92.9803 68.6561 87.2017 68.6561H86.7572C79.9482 54.735 51.7422 0 51.7422 0C51.7422 0 63.7641 0.121229 69.7649 0Z" fill="#BEC0C2"/>
<path d="M44.2262 52.1488L52.5102 68.6359C51.3585 68.6359 34.6895 68.6359 34.6895 68.6359C23.0919 45.9661 10.8881 22.9931 -0.285156 0.020195H17.3739C17.3739 0.020195 43.4382 50.4111 44.2464 52.1488" fill="#BEC0C2"/>
<path d="M149.715 52.1488L157.999 68.6359C156.848 68.6359 140.179 68.6359 140.179 68.6359C128.601 45.9661 116.377 22.9931 105.204 0.020195H122.843C122.843 0.020195 148.907 50.4111 149.715 52.1488Z" fill="#BEC0C2"/>
<path d="M53.9648 19.6795C54.0255 19.4775 54.2679 19.1946 54.1265 19.0936C54.0659 19.0532 53.7426 19.0532 53.6214 19.0936C53.5001 19.134 53.4597 19.1946 53.4193 19.2754C52.207 21.0737 54.7326 22.1647 55.6216 23.4578C55.7631 23.6599 55.7631 23.8821 55.7833 24.1246C55.7833 24.2256 55.8641 24.3671 56.0257 24.3469C56.3288 24.3065 56.5107 23.8821 56.4905 23.7205C56.2278 22.4476 54.7326 21.801 54.0255 20.7302C53.8234 20.4271 53.8032 20.0432 53.9244 19.6795H53.9648Z" fill="#BEC0C2"/>
<path d="M59.6226 23.3972C59.2589 23.3568 59.2185 22.9123 59.2791 22.5486C59.3397 22.2658 59.6428 21.9425 59.9256 22.2051C60.1277 22.4072 60.4509 22.6294 60.3903 22.8921C60.3297 23.2154 59.9256 23.4174 59.6226 23.3972ZM57.4404 19.5987C57.4404 19.5987 57.2788 19.7199 57.2182 19.821C56.7939 20.6494 55.9857 21.2555 56.1877 22.2253C56.2887 22.7709 57.0161 23.175 57.198 23.3972C57.2788 23.4781 57.3596 23.5387 57.3394 23.6599C57.2586 24.1448 56.511 24.7712 55.9655 24.8722C55.3593 24.9934 55.3593 23.7811 54.8744 24.0034C54.3895 24.2054 53.5813 25.4177 54.0864 25.7006C55.622 26.5492 56.1473 26.8321 57.4 27.0745C59.4407 27.4786 60.1681 24.852 60.8954 23.4578C61.0369 23.1952 61.5218 23.0942 61.4612 22.8719C61.0571 20.9929 59.1174 20.3867 57.4606 19.6189L57.4404 19.5987Z" fill="#BEC0C2"/>
<path d="M68.0271 48.1482C67.6837 48.6331 67.219 49.017 66.6532 49.2191C64.0064 50.1485 61.4606 46.1681 60.3291 43.6223C58.9552 40.5108 57.5812 37.5811 56.4093 34.4089C57.1569 33.8634 57.7429 33.2168 58.5511 32.6511C57.7025 35.015 59.3997 37.3386 61.1171 38.8742C63.3598 40.8745 65.7238 42.5312 67.7443 44.875C68.5323 45.8044 68.7343 47.1178 68.0271 48.1482ZM55.3587 31.9641C55.2173 31.7216 55.0961 31.4388 55.2375 31.1963C55.2981 31.0953 55.5607 30.9337 55.6012 31.0953C55.7426 31.6004 56.0053 32.1055 56.4902 32.2268C56.2477 32.7925 55.5608 32.348 55.3587 31.9641ZM54.7121 28.9738C54.6111 28.6707 54.4495 28.3474 55.0556 28.1656C55.1768 28.8121 55.3385 29.1556 55.7224 29.5597C55.7224 29.5597 55.5001 29.7214 55.4193 29.7012C55.096 29.6608 54.8132 29.2769 54.7121 28.9738ZM53.8029 33.8836C53.4392 33.5401 53.1564 32.9339 53.5403 32.4288C53.6009 32.348 53.7423 32.3682 53.7625 32.4288C53.8433 32.9743 54.2474 33.3784 54.5101 33.7825C54.692 34.0654 54.0858 34.126 53.8231 33.8836H53.8029ZM52.9543 31.1559C52.6108 30.8528 52.4694 30.5094 52.6108 30.1457C52.6311 30.0446 52.8937 29.883 52.9543 30.0446C53.116 30.4892 53.2776 30.9943 53.8029 31.0751C53.6615 31.5398 53.2978 31.4388 52.9543 31.1559ZM51.8229 35.1565C51.5198 34.8938 51.4188 34.4089 51.54 33.9846C51.54 33.9442 51.6612 33.8836 51.7218 33.8836C52.1057 33.9846 52.1057 34.4089 52.2674 34.6918C52.3684 34.8938 52.4896 34.8938 52.631 35.1161C52.4896 35.5808 52.0451 35.3383 51.8431 35.1565H51.8229ZM50.7722 32.5298C50.651 32.3076 50.4691 32.0853 50.4489 31.8631C50.4489 31.6812 50.7722 31.2771 50.8732 31.4994C51.0753 31.9439 51.1763 32.3884 51.7218 32.6511C51.4996 33.1764 50.9944 32.9946 50.7722 32.5298ZM49.6811 36.0455C49.6205 35.7424 49.6407 35.0959 50.065 35.2777C50.2267 35.3585 50.1458 35.6818 50.3277 35.9445C50.4893 36.1869 50.7318 36.4294 50.7116 36.5506C50.6308 37.278 49.7822 36.49 49.6811 36.0455ZM48.8527 33.0552C48.8527 33.0552 49.0952 32.8733 49.1356 32.9946C49.2164 33.2168 49.3174 33.3987 49.4387 33.5805C49.6003 33.8432 50.1054 33.8836 49.9438 34.2675C49.9034 34.3483 49.762 34.4291 49.6811 34.4089C49.075 34.2877 48.5497 33.6613 48.8527 33.0552ZM47.9233 30.57C47.8627 30.3477 48.1253 30.0648 48.4284 30.1659C48.3274 30.3073 48.6305 30.8124 48.7113 30.9135C48.9335 31.1963 48.8527 31.2367 49.176 31.3782C49.0548 31.7419 48.6103 31.8025 48.4082 31.5398C48.186 31.2367 48.0041 30.9337 47.9233 30.5902V30.57ZM49.8428 29.0748C49.8428 29.0748 49.9236 28.7717 50.1458 28.7717C50.4489 28.8121 50.3075 29.1354 50.3479 29.2971C50.4287 29.6405 50.9338 29.8022 50.8732 30.2265C50.8732 30.2871 50.7116 30.3477 50.6106 30.3679C50.5297 30.3679 50.4085 30.3477 50.3479 30.2871C49.9842 29.9436 49.7215 29.5799 49.8226 29.095L49.8428 29.0748ZM51.7622 27.8221C51.8229 27.7211 52.0855 27.5594 52.1057 27.7009C52.2067 28.206 52.5704 28.5697 52.8331 28.9536C52.9543 29.1152 52.3482 29.3577 52.1259 29.0748C51.8228 28.7111 51.4996 28.2868 51.7622 27.8221ZM57.6418 29.0344C57.8641 29.095 58.0864 29.883 58.7329 30.1457C58.6723 30.2871 58.5915 30.5094 58.4501 30.5094C58.0055 30.5094 57.7227 30.1861 57.4802 29.8224C57.2176 29.4183 57.5206 29.0142 57.6418 29.0546V29.0344ZM70.5124 45.1983C68.7141 40.9149 64.1882 39.0358 61.0767 35.6616C60.4099 34.9544 60.1068 33.8634 60.6524 33.0148C60.9959 32.4692 61.5616 32.1257 62.2284 32.1864C63.4204 32.2672 64.2286 33.2168 64.6125 34.3079C64.3499 34.2068 64.1276 34.3887 64.0064 34.5301C63.6831 34.9342 63.7235 35.5606 64.0468 35.9243C64.5721 36.49 65.3803 36.6516 66.0067 36.0859C66.6936 35.4595 66.6532 34.5099 66.4108 33.7017C65.6228 30.9943 62.5719 29.1556 60.0058 30.6306C60.5312 29.0344 61.1575 27.6201 61.9051 26.0643C62.0263 25.7814 62.5112 25.741 62.7739 25.4783C63.279 24.9732 63.0972 23.9024 62.39 23.5589C62.0667 23.3972 61.6626 23.4174 61.5212 23.7003C60.7736 25.1955 60.3089 26.9937 58.6319 27.5999C56.672 28.3272 55.0556 26.4684 53.1564 26.0845C51.8228 25.8218 50.8126 26.6704 49.6205 27.0543C48.4284 24.2458 47.4586 21.3363 46.024 18.6289C45.5997 17.8409 45.3169 16.9923 44.7107 16.2447C44.2864 15.7194 43.9227 15.2749 43.3772 14.891C42.9125 14.5677 41.9629 14.1232 41.4982 14.8708C42.1649 15.2143 43.0337 15.679 42.9327 16.5074C42.9125 16.7094 42.7711 16.8913 42.4882 16.7094C42.0437 16.2245 41.7204 15.7396 41.0739 15.4971C40.7506 15.3759 40.2859 15.2143 39.9828 15.4971C39.7403 15.7194 39.6191 16.2245 39.902 16.4064C40.2859 16.6488 40.8112 16.467 41.2153 16.7296C41.7406 17.0529 42.2053 17.5378 42.1851 18.144C42.1851 18.2652 41.9427 18.5279 41.8416 18.447C41.5992 18.2652 41.4375 17.8409 41.1345 17.558C40.6698 17.1135 40.1242 16.9115 39.6797 17.356C38.9725 18.1036 40.0232 19.821 40.892 20.6696C41.3971 21.1545 42.0235 21.3768 42.7307 21.4374C42.9933 23.5791 43.559 25.7814 44.0036 27.9029C43.256 27.2564 42.6701 26.5694 42.0033 25.9633C41.3365 25.3571 40.7102 24.7106 40.0232 24.1044C39.2756 23.4377 38.6291 22.7507 37.6996 22.2658C36.8914 21.8415 36.1439 21.498 35.2549 21.7C34.9518 21.7606 34.4467 22.0839 34.6083 22.2052C35.174 22.589 36.0024 22.589 36.548 23.0942C36.8106 23.3366 36.851 24.1246 36.5076 23.8822C35.5781 23.1952 33.4768 22.2456 33.396 24.1246C33.396 24.4075 33.8405 24.2054 34.3254 24.2256C34.8104 24.2458 35.3357 24.4277 35.659 24.6701C35.9216 24.8722 36.2045 24.9934 36.2449 25.3167C36.2651 25.5592 36.063 25.7814 35.9014 25.7208C35.3761 25.4379 34.9518 24.953 34.3456 25.0136C33.8405 25.054 33.4364 25.3571 33.5981 25.7814C34.2042 27.418 36.3661 28.9334 38.0633 28.0646C40.3263 30.671 42.3872 33.4391 44.8926 35.8636C45.4381 36.389 46.4887 35.6212 47.3171 35.3787C47.1555 35.8839 47.1959 36.3486 47.398 36.8133C48.5497 39.5409 51.4389 40.8745 53.318 43.0364C52.3886 42.6525 51.3783 42.5515 50.3883 42.6121C49.3781 42.6929 48.7921 43.5415 48.7719 44.4507C47.4384 42.2686 46.2059 40.0663 44.4683 38.1468C43.8217 37.4194 42.67 36.2273 41.579 37.3184C41.5184 37.379 41.4982 37.5002 41.579 37.5406C42.2457 37.7831 42.9529 38.066 43.1752 38.7934C43.256 39.056 43.0741 39.3793 42.9327 39.2581C42.2659 38.7934 41.781 38.0256 40.8112 38.2074C40.2657 38.3286 39.9424 39.1368 40.4475 39.4399C40.8314 39.6622 41.3567 39.642 41.781 39.844C42.0437 39.9854 42.8923 40.4906 42.7509 41.1775C42.7509 41.2583 42.569 41.4604 42.4478 41.3796C42.1447 41.1775 41.1951 39.743 40.3263 40.3895C39.5383 40.9957 40.6294 42.2686 41.2759 42.9354C41.9427 43.6425 42.9125 44.2083 43.9227 43.784C45.1552 46.4106 46.4484 48.9968 47.6809 51.6436C49.6609 50.3707 51.7824 48.128 54.3485 49.118C54.3889 51.1587 52.8937 52.9974 53.6009 55.0583C54.2474 56.9373 56.3285 57.6041 58.046 58.2506C57.359 60.5136 56.2073 62.5543 55.5204 64.8778C55.1769 66.0497 55.3385 67.6055 56.6922 68.05C56.5912 66.8175 56.3083 66.2922 56.9953 65.484C57.2176 65.2213 57.6419 65.3628 57.561 65.686C57.3792 66.3932 57.1165 66.9589 57.4398 67.7671C57.6419 68.2521 58.0864 68.6359 58.5713 68.5955C58.8946 68.5955 59.137 68.2318 59.1774 67.9288C59.2582 67.4236 58.7531 67.3428 58.6319 66.8781C58.5107 66.3528 58.4703 65.8881 58.7329 65.383C58.8541 65.1405 59.0764 64.9789 59.3188 64.9384C59.4401 64.9789 59.4805 64.9991 59.5007 65.0597C59.723 65.4436 59.2583 65.7668 59.2785 66.1709C59.2987 66.6963 59.6825 67.3832 60.1674 67.1812C61.4201 66.6559 61.4808 65.0193 61.501 63.7464C61.501 63.1806 61.1777 62.6351 60.5513 62.5543C61.5818 60.6954 62.8951 59.0184 63.8447 57.1394C62.1475 56.0685 59.6826 55.1189 59.5613 52.9368C59.5007 51.7043 59.7633 50.1687 60.6726 49.2191C61.8849 50.1687 63.0769 51.1991 64.7135 51.5224C66.5724 51.8861 68.411 51.4012 69.684 49.9666C70.9367 48.5725 71.1387 46.6733 70.5124 45.1579V45.1983Z" fill="#BEC0C2"/>
<path d="M99.3654 5.21284C99.4462 5.0108 99.6685 4.72793 99.5472 4.6269C99.4866 4.58649 99.1634 4.58649 99.0421 4.6269C98.9209 4.66731 98.8805 4.72793 98.8401 4.80875C97.6278 6.60698 100.153 7.69804 101.063 8.99115C101.204 9.1932 101.204 9.41546 101.224 9.65792C101.224 9.75894 101.305 9.90037 101.467 9.88017C101.77 9.83976 101.952 9.39525 101.931 9.25382C101.669 7.96071 100.174 7.33436 99.4664 6.2635C99.2644 5.96042 99.2442 5.57653 99.3654 5.21284Z" fill="#BEC0C2"/>
<path d="M105.043 8.93054C104.679 8.91033 104.639 8.44562 104.699 8.08193C104.76 7.79907 105.063 7.49599 105.346 7.73845C105.548 7.9405 105.871 8.16275 105.811 8.42542C105.75 8.74869 105.346 8.95074 105.043 8.93054ZM102.861 5.13202C102.861 5.13202 102.699 5.23305 102.639 5.35428C102.214 6.18268 101.406 6.80903 101.608 7.75866C101.709 8.30419 102.416 8.70828 102.618 8.93054C102.699 9.01136 102.78 9.07197 102.76 9.1932C102.679 9.67812 101.931 10.3045 101.386 10.4055C100.78 10.5267 100.78 9.31443 100.295 9.53668C99.8099 9.73873 99.0017 10.951 99.5068 11.2339C101.042 12.0825 101.588 12.3654 102.82 12.6078C104.861 13.0119 105.589 10.3853 106.316 9.01136C106.457 8.74869 106.942 8.64767 106.882 8.42542C106.478 6.54636 104.538 5.94022 102.881 5.17243L102.861 5.13202Z" fill="#BEC0C2"/>
<path d="M113.448 33.6815C113.104 34.1664 112.64 34.5503 112.074 34.7524C109.407 35.6818 106.881 31.7014 105.75 29.1556C104.376 26.0441 103.002 23.1144 101.83 19.9422C102.598 19.3967 103.164 18.7501 103.972 18.1844C103.123 20.5483 104.82 22.8719 106.538 24.4075C108.781 26.4078 111.145 28.0646 113.165 30.4083C113.953 31.3377 114.155 32.6511 113.448 33.6815ZM100.779 17.4974C100.638 17.2347 100.517 16.9721 100.658 16.7296C100.719 16.6286 100.981 16.467 101.022 16.6286C101.163 17.1337 101.426 17.6388 101.911 17.7601C101.668 18.3258 101.002 17.8813 100.779 17.4974ZM100.133 14.5071C100.032 14.204 99.8702 13.8807 100.476 13.6989C100.598 14.3455 100.739 14.6889 101.143 15.093C101.143 15.093 100.921 15.2547 100.84 15.2345C100.517 15.1941 100.214 14.8102 100.133 14.5071ZM99.2236 19.4169C98.8599 19.0734 98.5771 18.4672 98.961 17.9621C99.0216 17.8813 99.163 17.9015 99.163 17.9621C99.2438 18.5077 99.6479 18.9118 99.9106 19.3158C100.092 19.6189 99.4863 19.6593 99.2236 19.4169ZM98.375 16.669C98.0315 16.3861 97.8901 16.0225 98.0113 15.6588C98.0315 15.5779 98.3144 15.3961 98.375 15.5577C98.5367 15.982 98.7185 16.5074 99.2034 16.5882C99.062 17.0529 98.6983 16.9519 98.375 16.669ZM97.2234 20.6898C96.9203 20.4271 96.8193 19.9422 96.9405 19.5179C96.9405 19.4775 97.0617 19.4169 97.1021 19.4371C97.486 19.5381 97.486 19.9624 97.6476 20.2453C97.7487 20.4473 97.8699 20.4473 98.0113 20.6696C97.8699 21.1343 97.4254 20.8918 97.2031 20.71L97.2234 20.6898ZM96.1727 18.0631C96.0515 17.8409 95.8696 17.6186 95.8494 17.3964C95.8494 17.2145 96.1929 16.8104 96.2737 17.0327C96.4758 17.4772 96.5768 17.9217 97.1223 18.1844C96.9001 18.6895 96.3949 18.5279 96.1727 18.0631ZM95.0816 21.5788C95.021 21.2555 95.0412 20.6292 95.4655 20.811C95.6272 20.8918 95.5463 21.2151 95.7282 21.4778C95.8898 21.7 96.1121 21.9627 96.1121 22.0839C96.0313 22.8113 95.1826 22.0233 95.0816 21.5788ZM94.2532 18.5885C94.2532 18.5885 94.4957 18.3864 94.5361 18.5279C94.6169 18.7501 94.7179 18.932 94.8392 19.1138C95.0008 19.3765 95.5059 19.3967 95.3443 19.8008C95.3241 19.8816 95.1624 19.9624 95.0816 19.9422C94.4755 19.821 93.9502 19.1946 94.2532 18.5885ZM93.3238 16.1033C93.2632 15.881 93.5258 15.5982 93.8289 15.7194C93.7279 15.8608 94.031 16.3659 94.1118 16.467C94.334 16.7498 94.2734 16.7902 94.5765 16.9317C94.4351 17.2954 94.0108 17.356 93.8289 17.0731C93.6067 16.77 93.4248 16.467 93.3238 16.1235V16.1033ZM95.2433 14.6283C95.2433 14.6283 95.3241 14.305 95.5463 14.3252C95.8494 14.3657 95.708 14.7091 95.7484 14.8506C95.8292 15.1941 96.3343 15.3557 96.2737 15.78C96.2737 15.8406 96.1121 15.9012 96.0111 15.9214C95.9302 15.9214 95.8292 15.9012 95.7484 15.8204C95.3847 15.4769 95.122 15.1132 95.2231 14.6283H95.2433ZM97.1627 13.3756C97.2234 13.2746 97.486 13.113 97.5264 13.2544C97.6274 13.7595 97.9911 14.1232 98.2538 14.5071C98.375 14.6687 97.7689 14.9112 97.5466 14.6283C97.2435 14.2646 96.9203 13.8403 97.1829 13.3756H97.1627ZM103.042 14.5879C103.265 14.6485 103.507 15.4365 104.133 15.679C104.073 15.8406 103.992 16.0427 103.851 16.0427C103.406 16.0427 103.123 15.7194 102.901 15.3557C102.638 14.9516 102.941 14.5475 103.063 14.5879H103.042ZM115.913 30.7518C114.115 26.4482 109.569 24.5893 106.477 21.2151C105.831 20.5079 105.507 19.4169 106.053 18.5683C106.396 18.0227 106.962 17.6995 107.629 17.7399C108.821 17.8207 109.629 18.7703 110.013 19.8614C109.75 19.7604 109.528 19.9422 109.427 20.1038C109.104 20.5079 109.144 21.1343 109.468 21.498C109.993 22.0637 110.821 22.2253 111.427 21.6596C112.114 21.0333 112.074 20.0836 111.852 19.2754C111.064 16.568 107.993 14.7293 105.447 16.2043C105.972 14.6081 106.578 13.1938 107.326 11.638C107.447 11.3551 107.952 11.3147 108.174 11.0521C108.68 10.5469 108.498 9.47608 107.79 9.13259C107.467 8.97095 107.063 8.99116 106.922 9.27403C106.174 10.7894 105.689 12.5674 104.032 13.1938C102.073 13.9211 100.456 12.0623 98.5569 11.6784C97.2233 11.4157 96.2131 12.2643 95.021 12.6482C93.8289 9.83976 92.8591 6.93026 91.4245 4.22281C91.0002 3.41462 90.7174 2.58622 90.1112 1.83864C89.6869 1.31331 89.3232 0.868803 88.7777 0.48491C88.313 0.161632 87.3634 -0.282875 86.8987 0.464705C87.5856 0.808188 88.4342 1.2729 88.3332 2.08109C88.313 2.30335 88.1716 2.46499 87.8887 2.28314C87.4442 1.79823 87.1209 1.31331 86.4744 1.07085C86.1511 0.949622 85.6864 0.808188 85.4035 1.07085C85.161 1.2931 85.0398 1.79823 85.3227 1.98007C85.6864 2.22253 86.2319 2.04069 86.636 2.30335C87.1613 2.64683 87.626 3.13175 87.6058 3.71769C87.6058 3.83892 87.3836 4.10158 87.2826 4.02076C87.0401 3.81871 86.8785 3.41462 86.5754 3.13175C86.1107 2.68724 85.5651 2.48519 85.1206 2.9499C84.4135 3.69748 85.4641 5.4149 86.3329 6.2635C86.8381 6.74842 87.4644 6.97067 88.1716 7.03129C88.4544 9.173 89 11.3753 89.4445 13.4968C88.6969 12.8503 88.1109 12.1633 87.4442 11.5572C86.7774 10.951 86.1309 10.3045 85.4641 9.69833C84.7367 9.03157 84.07 8.3446 83.1406 7.85969C82.3324 7.43538 81.5848 7.0919 80.6958 7.29395C80.3927 7.37477 79.8876 7.67784 80.0492 7.79907C80.615 8.16276 81.4433 8.18297 81.9889 8.68809C82.2515 8.93055 82.2919 9.71854 81.9485 9.47608C81.019 8.78911 78.9379 7.83948 78.8369 9.71854C78.8369 10.0014 79.2814 9.79935 79.7664 9.81956C80.2513 9.83976 80.7766 10.0216 81.0998 10.2641C81.3625 10.4661 81.6454 10.5873 81.6858 10.9308C81.706 11.1531 81.504 11.3955 81.3423 11.3147C80.817 11.0521 80.4129 10.5671 79.7865 10.6075C79.2814 10.648 78.8773 10.9712 79.039 11.3753C79.6451 13.0119 81.807 14.5273 83.5042 13.6585C85.7672 16.2851 87.8281 19.033 90.3335 21.4576C90.879 21.9829 91.9297 21.2151 92.7581 20.9726C92.5964 21.4778 92.6369 21.9627 92.8389 22.4072C93.9906 25.1348 96.8799 26.4684 98.7589 28.6303C97.8295 28.2464 96.8193 28.1252 95.8292 28.206C94.819 28.2666 94.2532 29.1354 94.2128 30.0244C92.8793 27.8423 91.6468 25.64 89.9092 23.7205C89.2626 22.9931 88.111 21.801 87.0199 22.8719C86.9593 22.9325 86.9391 23.0537 87.0199 23.0942C87.6867 23.3366 88.3938 23.6195 88.6161 24.3469C88.6969 24.6095 88.515 24.9328 88.3736 24.8116C87.7069 24.3469 87.2219 23.5791 86.2521 23.7609C85.7066 23.8821 85.3833 24.6903 85.8884 24.9934C86.2521 25.2157 86.7976 25.1955 87.2017 25.3975C87.4644 25.5389 88.2928 26.0441 88.1716 26.731C88.1716 26.8119 87.9897 27.0139 87.8685 26.9331C87.5654 26.731 86.5956 25.2965 85.747 25.943C84.959 26.5492 86.0501 27.8221 86.6966 28.4889C87.3836 29.196 88.3332 29.7618 89.3434 29.3173C90.5759 31.9439 91.869 34.5301 93.1015 37.1769C95.0816 35.904 97.2031 33.6613 99.7692 34.6513C99.7894 36.692 98.2942 38.5307 99.0216 40.5916C99.6681 42.4908 101.749 43.1374 103.467 43.7839C102.78 46.0469 101.628 48.0876 100.941 50.4111C100.598 51.583 100.759 53.1388 102.093 53.5833C101.992 52.3508 101.709 51.8255 102.396 51.0173C102.618 50.7546 103.042 50.8961 102.962 51.2193C102.78 51.9265 102.517 52.4922 102.84 53.3004C103.042 53.8056 103.487 54.1692 103.972 54.1288C104.295 54.1288 104.538 53.7651 104.578 53.4621C104.659 52.957 104.154 52.8559 104.032 52.4114C103.891 51.8861 103.871 51.4214 104.133 50.9163C104.275 50.6738 104.477 50.5122 104.719 50.4718C104.841 50.5122 104.881 50.5324 104.901 50.593C105.123 50.9769 104.659 51.3002 104.679 51.7043C104.719 52.2498 105.083 52.9165 105.568 52.7145C106.821 52.1892 106.881 50.5526 106.901 49.2797C106.901 48.7139 106.578 48.1684 105.952 48.0876C106.982 46.2489 108.296 44.5517 109.245 42.6727C107.548 41.6018 105.083 40.6522 104.962 38.4701C104.901 37.2376 105.144 35.702 106.073 34.7524C107.285 35.702 108.498 36.7324 110.114 37.0557C111.973 37.4194 113.812 36.9345 115.105 35.4999C116.337 34.1058 116.559 32.2066 115.933 30.6912L115.913 30.7518Z" fill="#BEC0C2"/>
</g>
<defs>
<clipPath id="clip0_1280_9434">
<rect width="158" height="68" fill="white"/>
</clipPath>
</defs>
</svg>
