<svg width="430" height="70" viewBox="0 0 430 70" fill="none" xmlns="http://www.w3.org/2000/svg">
<g clip-path="url(#clip0_927_18966)">
<path d="M341.765 0C353.544 22.5688 365.425 45.9863 376.82 68.6561C370.9 68.6561 364.98 68.6561 359.202 68.6561H358.757C351.948 54.735 323.742 0 323.742 0C323.742 0 335.764 0.121229 341.765 0Z" fill="#BEC0C2"/>
<path d="M316.226 52.1488L324.51 68.6359C323.358 68.6359 306.689 68.6359 306.689 68.6359C295.092 45.9661 282.888 22.9931 271.715 0.020195H289.374C289.374 0.020195 315.438 50.4111 316.246 52.1488" fill="#BEC0C2"/>
<path d="M421.715 52.1488L429.999 68.6359C428.848 68.6359 412.179 68.6359 412.179 68.6359C400.601 45.9661 388.377 22.9931 377.204 0.020195H394.843C394.843 0.020195 420.907 50.4111 421.715 52.1488Z" fill="#BEC0C2"/>
<path d="M325.965 19.6795C326.025 19.4775 326.268 19.1946 326.126 19.0936C326.066 19.0532 325.743 19.0532 325.621 19.0936C325.5 19.134 325.46 19.1946 325.419 19.2754C324.207 21.0737 326.733 22.1647 327.622 23.4578C327.763 23.6599 327.763 23.8821 327.783 24.1246C327.783 24.2256 327.864 24.3671 328.026 24.3469C328.329 24.3065 328.511 23.8821 328.49 23.7205C328.228 22.4476 326.733 21.801 326.025 20.7302C325.823 20.4271 325.803 20.0432 325.924 19.6795H325.965Z" fill="#BEC0C2"/>
<path d="M331.623 23.3972C331.259 23.3568 331.218 22.9123 331.279 22.5486C331.34 22.2658 331.643 21.9425 331.926 22.2051C332.128 22.4072 332.451 22.6294 332.39 22.8921C332.33 23.2154 331.926 23.4174 331.623 23.3972ZM329.44 19.5987C329.44 19.5987 329.279 19.7199 329.218 19.821C328.794 20.6494 327.986 21.2555 328.188 22.2253C328.289 22.7709 329.016 23.175 329.198 23.3972C329.279 23.4781 329.36 23.5387 329.339 23.6599C329.259 24.1448 328.511 24.7712 327.965 24.8722C327.359 24.9934 327.359 23.7811 326.874 24.0034C326.389 24.2054 325.581 25.4177 326.086 25.7006C327.622 26.5492 328.147 26.8321 329.4 27.0745C331.441 27.4786 332.168 24.852 332.895 23.4578C333.037 23.1952 333.522 23.0942 333.461 22.8719C333.057 20.9929 331.117 20.3867 329.461 19.6189L329.44 19.5987Z" fill="#BEC0C2"/>
<path d="M340.027 48.1482C339.684 48.6331 339.219 49.017 338.653 49.2191C336.006 50.1485 333.461 46.1681 332.329 43.6223C330.955 40.5108 329.581 37.5811 328.409 34.4089C329.157 33.8634 329.743 33.2168 330.551 32.6511C329.702 35.015 331.4 37.3386 333.117 38.8742C335.36 40.8745 337.724 42.5312 339.744 44.875C340.532 45.8044 340.734 47.1178 340.027 48.1482ZM327.359 31.9641C327.217 31.7216 327.096 31.4388 327.237 31.1963C327.298 31.0953 327.561 30.9337 327.601 31.0953C327.743 31.6004 328.005 32.1055 328.49 32.2268C328.248 32.7925 327.561 32.348 327.359 31.9641ZM326.712 28.9738C326.611 28.6707 326.449 28.3474 327.056 28.1656C327.177 28.8121 327.338 29.1556 327.722 29.5597C327.722 29.5597 327.5 29.7214 327.419 29.7012C327.096 29.6608 326.813 29.2769 326.712 28.9738ZM325.803 33.8836C325.439 33.5401 325.156 32.9339 325.54 32.4288C325.601 32.348 325.742 32.3682 325.763 32.4288C325.843 32.9743 326.247 33.3784 326.51 33.7825C326.692 34.0654 326.086 34.126 325.823 33.8836H325.803ZM324.954 31.1559C324.611 30.8528 324.469 30.5094 324.611 30.1457C324.631 30.0446 324.894 29.883 324.954 30.0446C325.116 30.4892 325.278 30.9943 325.803 31.0751C325.661 31.5398 325.298 31.4388 324.954 31.1559ZM323.823 35.1565C323.52 34.8938 323.419 34.4089 323.54 33.9846C323.54 33.9442 323.661 33.8836 323.722 33.8836C324.106 33.9846 324.106 34.4089 324.267 34.6918C324.368 34.8938 324.49 34.8938 324.631 35.1161C324.49 35.5808 324.045 35.3383 323.843 35.1565H323.823ZM322.772 32.5298C322.651 32.3076 322.469 32.0853 322.449 31.8631C322.449 31.6812 322.772 31.2771 322.873 31.4994C323.075 31.9439 323.176 32.3884 323.722 32.6511C323.5 33.1764 322.994 32.9946 322.772 32.5298ZM321.681 36.0455C321.621 35.7424 321.641 35.0959 322.065 35.2777C322.227 35.3585 322.146 35.6818 322.328 35.9445C322.489 36.1869 322.732 36.4294 322.712 36.5506C322.631 37.278 321.782 36.49 321.681 36.0455ZM320.853 33.0552C320.853 33.0552 321.095 32.8733 321.136 32.9946C321.216 33.2168 321.317 33.3987 321.439 33.5805C321.6 33.8432 322.105 33.8836 321.944 34.2675C321.903 34.3483 321.762 34.4291 321.681 34.4089C321.075 34.2877 320.55 33.6613 320.853 33.0552ZM319.923 30.57C319.863 30.3477 320.125 30.0648 320.428 30.1659C320.327 30.3073 320.63 30.8124 320.711 30.9135C320.934 31.1963 320.853 31.2367 321.176 31.3782C321.055 31.7419 320.61 31.8025 320.408 31.5398C320.186 31.2367 320.004 30.9337 319.923 30.5902V30.57ZM321.843 29.0748C321.843 29.0748 321.924 28.7717 322.146 28.7717C322.449 28.8121 322.307 29.1354 322.348 29.2971C322.429 29.6405 322.934 29.8022 322.873 30.2265C322.873 30.2871 322.712 30.3477 322.611 30.3679C322.53 30.3679 322.408 30.3477 322.348 30.2871C321.984 29.9436 321.722 29.5799 321.823 29.095L321.843 29.0748ZM323.762 27.8221C323.823 27.7211 324.086 27.5594 324.106 27.7009C324.207 28.206 324.57 28.5697 324.833 28.9536C324.954 29.1152 324.348 29.3577 324.126 29.0748C323.823 28.7111 323.5 28.2868 323.762 27.8221ZM329.642 29.0344C329.864 29.095 330.086 29.883 330.733 30.1457C330.672 30.2871 330.591 30.5094 330.45 30.5094C330.006 30.5094 329.723 30.1861 329.48 29.8224C329.218 29.4183 329.521 29.0142 329.642 29.0546V29.0344ZM342.512 45.1983C340.714 40.9149 336.188 39.0358 333.077 35.6616C332.41 34.9544 332.107 33.8634 332.652 33.0148C332.996 32.4692 333.562 32.1257 334.228 32.1864C335.42 32.2672 336.229 33.2168 336.613 34.3079C336.35 34.2068 336.128 34.3887 336.006 34.5301C335.683 34.9342 335.724 35.5606 336.047 35.9243C336.572 36.49 337.38 36.6516 338.007 36.0859C338.694 35.4595 338.653 34.5099 338.411 33.7017C337.623 30.9943 334.572 29.1556 332.006 30.6306C332.531 29.0344 333.157 27.6201 333.905 26.0643C334.026 25.7814 334.511 25.741 334.774 25.4783C335.279 24.9732 335.097 23.9024 334.39 23.5589C334.067 23.3972 333.663 23.4174 333.521 23.7003C332.774 25.1955 332.309 26.9937 330.632 27.5999C328.672 28.3272 327.056 26.4684 325.156 26.0845C323.823 25.8218 322.813 26.6704 321.621 27.0543C320.428 24.2458 319.459 21.3363 318.024 18.6289C317.6 17.8409 317.317 16.9923 316.711 16.2447C316.286 15.7194 315.923 15.2749 315.377 14.891C314.912 14.5677 313.963 14.1232 313.498 14.8708C314.165 15.2143 315.034 15.679 314.933 16.5074C314.912 16.7094 314.771 16.8913 314.488 16.7094C314.044 16.2245 313.72 15.7396 313.074 15.4971C312.751 15.3759 312.286 15.2143 311.983 15.4971C311.74 15.7194 311.619 16.2245 311.902 16.4064C312.286 16.6488 312.811 16.467 313.215 16.7296C313.741 17.0529 314.205 17.5378 314.185 18.144C314.185 18.2652 313.943 18.5279 313.842 18.447C313.599 18.2652 313.438 17.8409 313.134 17.558C312.67 17.1135 312.124 16.9115 311.68 17.356C310.973 18.1036 312.023 19.821 312.892 20.6696C313.397 21.1545 314.023 21.3768 314.731 21.4374C314.993 23.5791 315.559 25.7814 316.004 27.9029C315.256 27.2564 314.67 26.5694 314.003 25.9633C313.337 25.3571 312.71 24.7106 312.023 24.1044C311.276 23.4377 310.629 22.7507 309.7 22.2658C308.891 21.8415 308.144 21.498 307.255 21.7C306.952 21.7606 306.447 22.0839 306.608 22.2052C307.174 22.589 308.002 22.589 308.548 23.0942C308.811 23.3366 308.851 24.1246 308.508 23.8822C307.578 23.1952 305.477 22.2456 305.396 24.1246C305.396 24.4075 305.841 24.2054 306.325 24.2256C306.81 24.2458 307.336 24.4277 307.659 24.6701C307.922 24.8722 308.204 24.9934 308.245 25.3167C308.265 25.5592 308.063 25.7814 307.901 25.7208C307.376 25.4379 306.952 24.953 306.346 25.0136C305.841 25.054 305.436 25.3571 305.598 25.7814C306.204 27.418 308.366 28.9334 310.063 28.0646C312.326 30.671 314.387 33.4391 316.893 35.8636C317.438 36.389 318.489 35.6212 319.317 35.3787C319.156 35.8839 319.196 36.3486 319.398 36.8133C320.55 39.5409 323.439 40.8745 325.318 43.0364C324.389 42.6525 323.378 42.5515 322.388 42.6121C321.378 42.6929 320.792 43.5415 320.772 44.4507C319.438 42.2686 318.206 40.0663 316.468 38.1468C315.822 37.4194 314.67 36.2273 313.579 37.3184C313.518 37.379 313.498 37.5002 313.579 37.5406C314.246 37.7831 314.953 38.066 315.175 38.7934C315.256 39.056 315.074 39.3793 314.933 39.2581C314.266 38.7934 313.781 38.0256 312.811 38.2074C312.266 38.3286 311.942 39.1368 312.448 39.4399C312.831 39.6622 313.357 39.642 313.781 39.844C314.044 39.9854 314.892 40.4906 314.751 41.1775C314.751 41.2583 314.569 41.4604 314.448 41.3796C314.145 41.1775 313.195 39.743 312.326 40.3895C311.538 40.9957 312.629 42.2686 313.276 42.9354C313.943 43.6425 314.913 44.2083 315.923 43.784C317.155 46.4106 318.448 48.9968 319.681 51.6436C321.661 50.3707 323.782 48.128 326.348 49.118C326.389 51.1587 324.894 52.9974 325.601 55.0583C326.247 56.9373 328.329 57.6041 330.046 58.2506C329.359 60.5136 328.207 62.5543 327.52 64.8778C327.177 66.0497 327.338 67.6055 328.692 68.05C328.591 66.8175 328.308 66.2922 328.995 65.484C329.218 65.2213 329.642 65.3628 329.561 65.686C329.379 66.3932 329.117 66.9589 329.44 67.7671C329.642 68.2521 330.086 68.6359 330.571 68.5955C330.895 68.5955 331.137 68.2318 331.177 67.9288C331.258 67.4236 330.753 67.3428 330.632 66.8781C330.511 66.3528 330.47 65.8881 330.733 65.383C330.854 65.1405 331.076 64.9789 331.319 64.9384C331.44 64.9789 331.481 64.9991 331.501 65.0597C331.723 65.4436 331.258 65.7668 331.278 66.1709C331.299 66.6963 331.683 67.3832 332.167 67.1812C333.42 66.6559 333.481 65.0193 333.501 63.7464C333.501 63.1806 333.178 62.6351 332.551 62.5543C333.582 60.6954 334.895 59.0184 335.845 57.1394C334.148 56.0685 331.683 55.1189 331.561 52.9368C331.501 51.7043 331.763 50.1687 332.673 49.2191C333.885 50.1687 335.077 51.1991 336.714 51.5224C338.572 51.8861 340.411 51.4012 341.684 49.9666C342.937 48.5725 343.139 46.6733 342.512 45.1579V45.1983Z" fill="#BEC0C2"/>
<path d="M371.365 5.21284C371.446 5.0108 371.668 4.72793 371.547 4.6269C371.487 4.58649 371.163 4.58649 371.042 4.6269C370.921 4.66731 370.88 4.72793 370.84 4.80875C369.628 6.60698 372.153 7.69804 373.063 8.99115C373.204 9.1932 373.204 9.41546 373.224 9.65792C373.224 9.75894 373.305 9.90037 373.467 9.88017C373.77 9.83976 373.952 9.39525 373.931 9.25382C373.669 7.96071 372.174 7.33436 371.466 6.2635C371.264 5.96042 371.244 5.57653 371.365 5.21284Z" fill="#BEC0C2"/>
<path d="M377.043 8.93054C376.679 8.91033 376.639 8.44562 376.699 8.08193C376.76 7.79907 377.063 7.49599 377.346 7.73845C377.548 7.9405 377.871 8.16275 377.811 8.42542C377.75 8.74869 377.346 8.95074 377.043 8.93054ZM374.861 5.13202C374.861 5.13202 374.699 5.23305 374.639 5.35428C374.214 6.18268 373.406 6.80903 373.608 7.75866C373.709 8.30419 374.416 8.70828 374.618 8.93054C374.699 9.01136 374.78 9.07197 374.76 9.1932C374.679 9.67812 373.931 10.3045 373.386 10.4055C372.78 10.5267 372.78 9.31443 372.295 9.53668C371.81 9.73873 371.002 10.951 371.507 11.2339C373.042 12.0825 373.588 12.3654 374.82 12.6078C376.861 13.0119 377.589 10.3853 378.316 9.01136C378.457 8.74869 378.942 8.64767 378.882 8.42542C378.478 6.54636 376.538 5.94022 374.881 5.17243L374.861 5.13202Z" fill="#BEC0C2"/>
<path d="M385.448 33.6815C385.104 34.1664 384.64 34.5503 384.074 34.7524C381.407 35.6818 378.881 31.7014 377.75 29.1556C376.376 26.0441 375.002 23.1144 373.83 19.9422C374.598 19.3967 375.164 18.7501 375.972 18.1844C375.123 20.5483 376.82 22.8719 378.538 24.4075C380.781 26.4078 383.145 28.0646 385.165 30.4083C385.953 31.3377 386.155 32.6511 385.448 33.6815ZM372.779 17.4974C372.638 17.2347 372.517 16.9721 372.658 16.7296C372.719 16.6286 372.981 16.467 373.022 16.6286C373.163 17.1337 373.426 17.6388 373.911 17.7601C373.668 18.3258 373.002 17.8813 372.779 17.4974ZM372.133 14.5071C372.032 14.204 371.87 13.8807 372.476 13.6989C372.598 14.3455 372.739 14.6889 373.143 15.093C373.143 15.093 372.921 15.2547 372.84 15.2345C372.517 15.1941 372.214 14.8102 372.133 14.5071ZM371.224 19.4169C370.86 19.0734 370.577 18.4672 370.961 17.9621C371.022 17.8813 371.163 17.9015 371.163 17.9621C371.244 18.5077 371.648 18.9118 371.911 19.3158C372.092 19.6189 371.486 19.6593 371.224 19.4169ZM370.375 16.669C370.032 16.3861 369.89 16.0225 370.011 15.6588C370.032 15.5779 370.314 15.3961 370.375 15.5577C370.537 15.982 370.719 16.5074 371.203 16.5882C371.062 17.0529 370.698 16.9519 370.375 16.669ZM369.223 20.6898C368.92 20.4271 368.819 19.9422 368.94 19.5179C368.94 19.4775 369.062 19.4169 369.102 19.4371C369.486 19.5381 369.486 19.9624 369.648 20.2453C369.749 20.4473 369.87 20.4473 370.011 20.6696C369.87 21.1343 369.425 20.8918 369.203 20.71L369.223 20.6898ZM368.173 18.0631C368.051 17.8409 367.87 17.6186 367.849 17.3964C367.849 17.2145 368.193 16.8104 368.274 17.0327C368.476 17.4772 368.577 17.9217 369.122 18.1844C368.9 18.6895 368.395 18.5279 368.173 18.0631ZM367.082 21.5788C367.021 21.2555 367.041 20.6292 367.466 20.811C367.627 20.8918 367.546 21.2151 367.728 21.4778C367.89 21.7 368.112 21.9627 368.112 22.0839C368.031 22.8113 367.183 22.0233 367.082 21.5788ZM366.253 18.5885C366.253 18.5885 366.496 18.3864 366.536 18.5279C366.617 18.7501 366.718 18.932 366.839 19.1138C367.001 19.3765 367.506 19.3967 367.344 19.8008C367.324 19.8816 367.162 19.9624 367.082 19.9422C366.475 19.821 365.95 19.1946 366.253 18.5885ZM365.324 16.1033C365.263 15.881 365.526 15.5982 365.829 15.7194C365.728 15.8608 366.031 16.3659 366.112 16.467C366.334 16.7498 366.273 16.7902 366.576 16.9317C366.435 17.2954 366.011 17.356 365.829 17.0731C365.607 16.77 365.425 16.467 365.324 16.1235V16.1033ZM367.243 14.6283C367.243 14.6283 367.324 14.305 367.546 14.3252C367.849 14.3657 367.708 14.7091 367.748 14.8506C367.829 15.1941 368.334 15.3557 368.274 15.78C368.274 15.8406 368.112 15.9012 368.011 15.9214C367.93 15.9214 367.829 15.9012 367.748 15.8204C367.385 15.4769 367.122 15.1132 367.223 14.6283H367.243ZM369.163 13.3756C369.223 13.2746 369.486 13.113 369.526 13.2544C369.627 13.7595 369.991 14.1232 370.254 14.5071C370.375 14.6687 369.769 14.9112 369.547 14.6283C369.244 14.2646 368.92 13.8403 369.183 13.3756H369.163ZM375.042 14.5879C375.265 14.6485 375.507 15.4365 376.133 15.679C376.073 15.8406 375.992 16.0427 375.851 16.0427C375.406 16.0427 375.123 15.7194 374.901 15.3557C374.638 14.9516 374.941 14.5475 375.063 14.5879H375.042ZM387.913 30.7518C386.115 26.4482 381.569 24.5893 378.477 21.2151C377.831 20.5079 377.507 19.4169 378.053 18.5683C378.396 18.0227 378.962 17.6995 379.629 17.7399C380.821 17.8207 381.629 18.7703 382.013 19.8614C381.75 19.7604 381.528 19.9422 381.427 20.1038C381.104 20.5079 381.144 21.1343 381.468 21.498C381.993 22.0637 382.821 22.2253 383.427 21.6596C384.114 21.0333 384.074 20.0836 383.852 19.2754C383.064 16.568 379.993 14.7293 377.447 16.2043C377.972 14.6081 378.578 13.1938 379.326 11.638C379.447 11.3551 379.952 11.3147 380.174 11.0521C380.68 10.5469 380.498 9.47608 379.79 9.13259C379.467 8.97095 379.063 8.99116 378.922 9.27403C378.174 10.7894 377.689 12.5674 376.032 13.1938C374.073 13.9211 372.456 12.0623 370.557 11.6784C369.223 11.4157 368.213 12.2643 367.021 12.6482C365.829 9.83976 364.859 6.93026 363.425 4.22281C363 3.41462 362.717 2.58622 362.111 1.83864C361.687 1.31331 361.323 0.868803 360.778 0.48491C360.313 0.161632 359.363 -0.282875 358.899 0.464705C359.586 0.808188 360.434 1.2729 360.333 2.08109C360.313 2.30335 360.172 2.46499 359.889 2.28314C359.444 1.79823 359.121 1.31331 358.474 1.07085C358.151 0.949622 357.686 0.808188 357.403 1.07085C357.161 1.2931 357.04 1.79823 357.323 1.98007C357.686 2.22253 358.232 2.04069 358.636 2.30335C359.161 2.64683 359.626 3.13175 359.606 3.71769C359.606 3.83892 359.384 4.10158 359.283 4.02076C359.04 3.81871 358.878 3.41462 358.575 3.13175C358.111 2.68724 357.565 2.48519 357.121 2.9499C356.413 3.69748 357.464 5.4149 358.333 6.2635C358.838 6.74842 359.464 6.97067 360.172 7.03129C360.454 9.173 361 11.3753 361.444 13.4968C360.697 12.8503 360.111 12.1633 359.444 11.5572C358.777 10.951 358.131 10.3045 357.464 9.69833C356.737 9.03157 356.07 8.3446 355.141 7.85969C354.332 7.43538 353.585 7.0919 352.696 7.29395C352.393 7.37477 351.888 7.67784 352.049 7.79907C352.615 8.16276 353.443 8.18297 353.989 8.68809C354.252 8.93055 354.292 9.71854 353.948 9.47608C353.019 8.78911 350.938 7.83948 350.837 9.71854C350.837 10.0014 351.281 9.79935 351.766 9.81956C352.251 9.83976 352.777 10.0216 353.1 10.2641C353.363 10.4661 353.645 10.5873 353.686 10.9308C353.706 11.1531 353.504 11.3955 353.342 11.3147C352.817 11.0521 352.413 10.5671 351.787 10.6075C351.281 10.648 350.877 10.9712 351.039 11.3753C351.645 13.0119 353.807 14.5273 355.504 13.6585C357.767 16.2851 359.828 19.033 362.333 21.4576C362.879 21.9829 363.93 21.2151 364.758 20.9726C364.596 21.4778 364.637 21.9627 364.839 22.4072C365.991 25.1348 368.88 26.4684 370.759 28.6303C369.829 28.2464 368.819 28.1252 367.829 28.206C366.819 28.2666 366.253 29.1354 366.213 30.0244C364.879 27.8423 363.647 25.64 361.909 23.7205C361.263 22.9931 360.111 21.801 359.02 22.8719C358.959 22.9325 358.939 23.0537 359.02 23.0942C359.687 23.3366 360.394 23.6195 360.616 24.3469C360.697 24.6095 360.515 24.9328 360.374 24.8116C359.707 24.3469 359.222 23.5791 358.252 23.7609C357.707 23.8821 357.383 24.6903 357.888 24.9934C358.252 25.2157 358.798 25.1955 359.202 25.3975C359.464 25.5389 360.293 26.0441 360.172 26.731C360.172 26.8119 359.99 27.0139 359.868 26.9331C359.565 26.731 358.596 25.2965 357.747 25.943C356.959 26.5492 358.05 27.8221 358.697 28.4889C359.384 29.196 360.333 29.7618 361.343 29.3173C362.576 31.9439 363.869 34.5301 365.102 37.1769C367.082 35.904 369.203 33.6613 371.769 34.6513C371.789 36.692 370.294 38.5307 371.022 40.5916C371.668 42.4908 373.749 43.1374 375.467 43.7839C374.78 46.0469 373.628 48.0876 372.941 50.4111C372.598 51.583 372.759 53.1388 374.093 53.5833C373.992 52.3508 373.709 51.8255 374.396 51.0173C374.618 50.7546 375.042 50.8961 374.962 51.2193C374.78 51.9265 374.517 52.4922 374.84 53.3004C375.042 53.8056 375.487 54.1692 375.972 54.1288C376.295 54.1288 376.538 53.7651 376.578 53.4621C376.659 52.957 376.154 52.8559 376.032 52.4114C375.891 51.8861 375.871 51.4214 376.133 50.9163C376.275 50.6738 376.477 50.5122 376.719 50.4718C376.841 50.5122 376.881 50.5324 376.901 50.593C377.123 50.9769 376.659 51.3002 376.679 51.7043C376.719 52.2498 377.083 52.9165 377.568 52.7145C378.821 52.1892 378.881 50.5526 378.901 49.2797C378.901 48.7139 378.578 48.1684 377.952 48.0876C378.982 46.2489 380.296 44.5517 381.245 42.6727C379.548 41.6018 377.083 40.6522 376.962 38.4701C376.901 37.2376 377.144 35.702 378.073 34.7524C379.285 35.702 380.498 36.7324 382.114 37.0557C383.973 37.4194 385.812 36.9345 387.105 35.4999C388.337 34.1058 388.559 32.2066 387.933 30.6912L387.913 30.7518Z" fill="#BEC0C2"/>
<path fill-rule="evenodd" clip-rule="evenodd" d="M18.4267 46.451L15.6586 47.3198C14.6888 44.0466 13.335 41.3594 9.57692 41.3594C6.90988 41.3594 4.44489 43.5011 4.44489 46.35C4.44489 53.6237 18.6691 50.7748 18.6691 60.9783C18.6691 66.0901 14.8706 69.2421 9.96081 69.2421C4.74796 69.2421 1.03026 66.0497 0.0200195 60.9783L2.99013 60.2711C3.69731 63.7262 6.32394 66.7165 10.0012 66.7165C13.0117 66.7165 15.598 64.4333 15.598 61.3218C15.598 53.2196 1.37375 56.5938 1.37375 46.7945C1.37375 41.9857 5.13185 38.8338 9.77897 38.8338C14.4261 38.8338 17.3558 42.2484 18.4469 46.451H18.4267ZM28.1048 41.1977V47.9259H32.7923V50.4111H28.1048V63.4433C28.1048 65.4638 28.0644 66.7771 30.4688 66.7771C31.2972 66.7771 32.0851 66.6963 32.7923 66.5144V68.6561C31.8629 68.9996 30.8728 69.2623 29.8626 69.2623C24.9124 69.2623 25.1751 65.9285 25.1751 62.13V50.4111H22.0231V47.9259H25.1751V41.1977H28.1048ZM51.3808 68.6359H48.1884L47.8853 66.0093C46.1881 67.6661 44.3293 69.2421 41.8845 69.2421C38.6921 69.2421 36.1463 66.575 36.1463 63.3019C36.1463 57.3818 42.3694 56.0887 46.9559 54.8562L47.8853 54.5936V53.4419C47.8853 51.0779 46.269 49.805 43.9454 49.805C41.6218 49.805 40.0863 51.3002 38.874 53.0782L36.8131 51.5426C38.5305 49.0574 40.7934 47.34 43.9454 47.34C46.7539 47.34 50.8151 49.0574 50.8151 53.7854V64.0696C50.8555 65.6052 50.7746 67.1812 51.3808 68.6561V68.6359ZM47.8853 56.9979L46.7135 57.3414C43.9454 58.1698 38.874 59.3013 38.874 62.9988C38.874 64.7162 40.2277 66.4538 41.9855 66.4538C44.3091 66.4538 46.4508 64.8374 47.8853 63.0796V56.9979ZM69.0601 62.8169V53.1994C68.1508 51.4012 66.4738 49.8656 64.2109 49.8656C60.1295 49.8656 59.2607 55.5028 59.2607 58.6143C59.2607 64.696 62.15 66.6761 64.1705 66.6761C66.191 66.6761 68.2316 64.5748 69.0398 62.8169H69.0601ZM69.0601 50.0475V39.4197H71.9898V68.6157H69.0601V66.2518C67.6659 67.9692 66.0495 69.2219 63.7664 69.2219C60.9579 69.2219 56.1895 66.6357 56.1895 58.6749C56.1895 50.7142 60.3113 47.2996 63.8876 47.2996C65.8677 47.2996 67.7063 48.6129 69.0601 50.0475ZM82.7589 41.1977V47.9259H87.4465V50.4111H82.7589V63.4433C82.7589 65.4638 82.7185 66.7771 85.1229 66.7771C85.9513 66.7771 86.7393 66.6963 87.4465 66.5144V68.6561C86.5171 68.9996 85.527 69.2623 84.5168 69.2623C79.5666 69.2623 79.8292 65.9285 79.8292 62.13V50.4111H76.6773V47.9259H79.8292V41.1977H82.7589ZM129.412 39.4399L122.724 68.6359H119.714L114.763 44.774H114.683L109.47 68.6359H106.459L100.337 39.4399H103.267L108.076 63.019H108.156L113.41 39.4399H116.299L121.29 63.019H121.37L126.502 39.4399H129.392H129.412ZM136.342 47.9259V68.6359H133.413V47.9259H136.342ZM136.342 39.4399V42.6727H133.413V39.4399H136.342ZM145.677 52.8761V68.6359H142.747V47.9259H145.677V50.0677C147.394 48.6735 149.011 47.3198 151.375 47.3198C154.304 47.3198 156.668 48.9362 156.668 54.3309V68.6359H153.739V55.0785C153.739 52.8963 154.123 49.704 150.991 49.704C149.193 49.704 146.829 51.4618 145.657 52.8559L145.677 52.8761ZM166.771 41.1977V47.9259H171.458V50.4111H166.771V63.4433C166.771 65.4638 166.73 66.7771 169.135 66.7771C169.963 66.7771 170.751 66.6963 171.458 66.5144V68.6561C170.529 68.9996 169.539 69.2623 168.529 69.2623C163.578 69.2623 163.841 65.9285 163.841 62.13V50.4111H160.689V47.9259H163.841V41.1977H166.771ZM189.966 58.7558H177.459C177.459 64.696 179.965 66.7569 182.975 66.7569C185.157 66.7569 186.996 64.9991 188.046 63.2008L190.148 64.595C189.016 67.262 186.248 69.2421 182.672 69.2421C178.065 69.2421 174.388 66.0497 174.388 58.291C174.388 50.5324 178.065 47.34 182.672 47.34C188.632 47.34 190.37 53.7247 189.946 58.7962L189.966 58.7558ZM177.54 56.2706H186.895C186.976 53.6035 185.541 49.7848 182.47 49.7848C179.156 49.7848 177.58 53.3409 177.56 56.2706H177.54ZM198.412 47.9057V52.371H198.492C199.664 49.8858 201.159 47.6027 204.231 47.6027H205.362V50.2697C201.543 49.7444 199.543 53.8662 198.412 56.8767V68.6157H195.482V47.9057H198.412ZM213.707 41.1775V47.9057H218.394V50.3909H213.707V63.4231C213.707 65.4436 213.666 66.7569 216.071 66.7569C216.899 66.7569 217.687 66.6761 218.394 66.4942V68.6359C217.465 68.9794 216.475 69.2421 215.464 69.2421C210.514 69.2421 210.777 65.9083 210.777 62.1098V50.3909H207.625V47.9057H210.777V41.1775H213.707ZM225.91 39.4197V50.0475C227.648 48.6533 229.244 47.2996 231.608 47.2996C234.538 47.2996 236.902 48.916 236.902 54.3107V68.6157H233.972V55.0583C233.972 52.8761 234.356 49.6838 231.224 49.6838C229.426 49.6838 227.062 51.4416 225.89 52.8357V68.5955H222.961V39.3995H225.89L225.91 39.4197ZM253.49 63.6655V47.9057H256.42V68.6157H253.49V66.474C251.752 67.8682 250.156 69.2219 247.792 69.2219C244.863 69.2219 242.499 67.6055 242.499 62.2108V47.9057H245.428V61.4632C245.428 63.6453 245.812 66.8377 248.176 66.8377C249.974 66.8377 252.338 65.0799 253.51 63.6857L253.49 63.6655ZM265.573 47.9057V52.371H265.653C266.825 49.8858 268.32 47.6027 271.392 47.6027H272.523V50.2697C268.684 49.7444 266.704 53.8662 265.573 56.8767V68.6157H262.643V47.9057H265.573Z" fill="#1D1D1B"/>
</g>
<defs>
<clipPath id="clip0_927_18966">
<rect width="430" height="69.2219" fill="white"/>
</clipPath>
</defs>
</svg>
